<svg xmlns="http://www.w3.org/2000/svg" width="50" height="50" viewBox="0 0 50 50" style="fill: rgb(2, 151, 255);">
    <path d="M 0.96875 2 C 0.80125 2.0075 0.61675 2.06575 0.46875 2.15625 C 0.17475 2.33925 0 2.653 0 3 L 0 41 C 0 41.379 0.2235 41.73625 0.5625 41.90625 L 12 47.625 L 12 7.375 L 1.4375 2.09375 C 1.2825 2.01725 1.13625 1.9925 0.96875 2 z M 49.03125 2 C 48.860625 1.996875 48.68575 2.0405 48.53125 2.125 L 39 7.3125 L 39 47.59375 L 49.46875 41.875 C 49.78975 41.701 50 41.366 50 41 L 50 3 C 50 2.647 49.802 2.305 49.5 2.125 C 49.348 2.035 49.201875 2.003125 49.03125 2 z M 24 2.375 L 14 7.375 L 14 47.625 L 24 42.625 L 24 2.375 z M 26 2.375 L 26 42.5625 L 37 47.625 L 37 7.4375 L 26 2.375 z"/>
</svg>